<svg xmlns="http://www.w3.org/2000/svg" xmlns:xlink="http://www.w3.org/1999/xlink" viewBox="0 0 437.42 598.29"><defs><style>.cls-1,.cls-7{fill:none;}.cls-2{fill:#e6283c;}.cls-3{clip-path:url(#clip-path);}.cls-4{fill:#fcde5a;}.cls-10,.cls-4,.cls-5,.cls-6,.cls-7,.cls-9{stroke:#1d1d1b;}.cls-4,.cls-5,.cls-6,.cls-7,.cls-9{stroke-linecap:round;stroke-linejoin:round;}.cls-4,.cls-6,.cls-7{stroke-width:13px;}.cls-5{fill:#f9ba72;stroke-width:16px;}.cls-6{fill:#1d1d1b;}.cls-8,.cls-9{fill:#fff;}.cls-9{stroke-width:7px;}.cls-10{fill:#e1295e;stroke-width:8px;}.cls-10,.cls-12{stroke-miterlimit:10;}.cls-11{fill:#009640;}.cls-12{fill:#1a692f;stroke:#936037;}.cls-13{fill:#f9c035;}</style><clipPath id="clip-path"><circle class="cls-1" cx="217.73" cy="293.69" r="213.56"/></clipPath></defs><g id="Capa_2" data-name="Capa 2"><g id="Pizza"><circle class="cls-2" cx="216.73" cy="292.72" r="213.56"/><g class="cls-3"><path class="cls-4" d="M63.74,441.7c4.5-27.39,30.55-46.22,39.55-52.72,27.72-20,58.85-20.52,120-20.69,51-.15,77.06.09,100.71,15,9.21,5.81,37.76,25.83,45.74,58.36,14.11,57.58-42.33,129.37-105.5,146.11C166.27,613.75,53,507.07,63.74,441.7Z"/></g><path class="cls-4" d="M382.9,267.07c-1.25,3.93-2.95,9.24-7.85,11.38a12.54,12.54,0,0,1-8.82.18c-7.21-2.53-11.8-12.8-11.41-25.58L222.52,476.69,114.91,301.57C85.2,314.7,79.67,286.24,80.82,270.45c.72-9.94-2.18-23.06-4.54-31.74l-44.61-72.6c6.51-8.61,74.08-94.81,190.07-92,112.37,2.69,175.15,86.61,182.05,96.19l-23.65,40c-5.76,14.79-4.34,23.76-1.69,29.34,1.52,3.2,3.82,6.09,5.07,11.94A30.57,30.57,0,0,1,382.9,267.07Z"/><path class="cls-5" d="M403.91,167.21l25.51-42.63a206,206,0,0,0-57.89-69.17c-23.81-18-45.81-26.21-60.71-31.6a271.71,271.71,0,0,0-175.77-2.36C118.38,27,92.75,35.68,65.32,56.75A211.51,211.51,0,0,0,8,124.58l23.78,38.47c8.15-10.21,72.93-88.61,183.39-89.1C330.09,73.43,396.64,157.67,403.91,167.21Z"/><polygon class="cls-6" points="91.57 170.16 148.04 242.63 205.93 170.16 91.57 170.16"/><polygon class="cls-6" points="229.81 170.16 286.28 242.63 344.16 170.16 229.81 170.16"/><line class="cls-7" x1="194.58" y1="170.16" x2="238.55" y2="170.16"/><rect class="cls-8" x="104.35" y="171.45" width="14.82" height="14.82"/><rect class="cls-8" x="121.42" y="189.13" width="7.41" height="7.41"/><rect class="cls-8" x="131.13" y="200.04" width="7.41" height="7.41"/><rect class="cls-8" x="244.11" y="171.13" width="14.82" height="14.82"/><rect class="cls-8" x="261.18" y="188.81" width="7.41" height="7.41"/><rect class="cls-8" x="270.89" y="199.72" width="7.41" height="7.41"/><path class="cls-9" d="M165.76,262.22H274.64A68.16,68.16,0,0,1,255,282c-18.16,11.8-46.92,17.55-69.17,3.28C181.14,282.29,172.33,275.59,165.76,262.22Z"/><circle class="cls-10" cx="217.29" cy="118.45" r="27.53"/><path class="cls-10" d="M169.36,327a27.52,27.52,0,0,0-45.58-17.47c11.34,14,20.15,30.06,31.4,44.8A27.52,27.52,0,0,0,169.36,327Z"/><path class="cls-10" d="M316.32,126.47a27.52,27.52,0,0,0,48.81-.43c-15.67-8.87-29.75-20.59-45.62-30.19A27.55,27.55,0,0,0,316.32,126.47Z"/><path class="cls-10" d="M264.39,333.37a27.52,27.52,0,0,0,6.07,48.43c7-16.59,17-31.93,24.71-48.8A27.51,27.51,0,0,0,264.39,333.37Z"/><polygon class="cls-11" points="81.79 137.04 84.81 143.17 91.57 144.15 86.68 148.92 87.83 155.66 81.79 152.47 75.74 155.66 76.89 148.92 72 144.15 78.76 143.17 81.79 137.04"/><polygon class="cls-11" points="276.01 122.69 279.03 128.82 285.79 129.8 280.9 134.57 282.06 141.31 276.01 138.13 269.96 141.31 271.12 134.57 266.22 129.8 272.98 128.82 276.01 122.69"/><polygon class="cls-11" points="209.42 206.39 212.44 212.52 219.21 213.5 214.31 218.27 215.47 225.01 209.42 221.83 203.37 225.01 204.53 218.27 199.63 213.5 206.4 212.52 209.42 206.39"/><polygon class="cls-11" points="205.93 330.9 208.95 337.03 215.71 338.01 210.82 342.78 211.97 349.51 205.93 346.33 199.88 349.51 201.03 342.78 196.14 338.01 202.9 337.03 205.93 330.9"/><ellipse class="cls-12" cx="131.13" cy="137.04" rx="8.49" ry="15.96" transform="translate(-58.5 132.86) rotate(-45)"/><ellipse class="cls-12" cx="134.83" cy="267.16" rx="15.96" ry="8.49" transform="translate(-149.42 173.59) rotate(-45)"/><ellipse class="cls-12" cx="220.82" cy="399.51" rx="15.96" ry="8.49" transform="translate(-217.82 273.16) rotate(-45)"/><ellipse class="cls-12" cx="286.98" cy="285.55" rx="15.96" ry="8.49" transform="translate(-117.86 286.56) rotate(-45)"/><path class="cls-13" d="M132.93,381.8a492.29,492.29,0,0,0,42.36,68.71c30,40.72,41.29,42.62,46.94,42.53,15-.24,25.71-15,43.23-39.88a337.11,337.11,0,0,0,38.3-71.36V381l-14.94-3.53L227.29,481.22a6.74,6.74,0,0,1-3.87,2.16,8.13,8.13,0,0,1-5.54-1.94c-5.82-4.45-57.74-93.37-63.65-103.52Z"/></g></g></svg>