<svg xmlns="http://www.w3.org/2000/svg" xmlns:xlink="http://www.w3.org/1999/xlink" viewBox="0 0 427.12 584.35"><defs><style>.cls-1,.cls-11,.cls-12,.cls-14{fill:none;}.cls-2{fill:#46ac34;}.cls-3{clip-path:url(#clip-path);}.cls-4{fill:#f1aa34;}.cls-11,.cls-12,.cls-4,.cls-5,.cls-7,.cls-8{stroke:#1d1d1b;}.cls-11,.cls-12,.cls-14,.cls-4,.cls-5,.cls-7,.cls-8{stroke-linecap:round;stroke-linejoin:round;}.cls-4,.cls-5{stroke-width:16px;}.cls-5{fill:#eb5d36;}.cls-6{fill:#bb4048;opacity:0.47;}.cls-7,.cls-8{fill:#1d1d1b;}.cls-8{stroke-width:4px;}.cls-9{fill:#eb5c48;}.cls-10{fill:#fff;}.cls-11{stroke-width:7px;}.cls-12{stroke-width:6px;}.cls-13{fill:#bf7a49;}.cls-14{stroke:#ffed00;stroke-width:15px;}</style><clipPath id="clip-path" transform="translate(-12.27)"><circle class="cls-1" cx="222.64" cy="278.25" r="213.56"/></clipPath></defs><g id="Capa_2" data-name="Capa 2"><g id="Hot_dog" data-name="Hot dog"><circle class="cls-2" cx="213.56" cy="278.25" r="213.56"/><g class="cls-3"><path class="cls-4" d="M68.65,426.26c4.5-27.39,30.55-46.22,39.55-52.72,27.71-20,58.85-20.52,120-20.69,51.05-.15,77.05.09,100.71,15,9.2,5.82,37.76,25.84,45.73,58.37,14.12,57.57-42.32,129.37-105.49,146.1C171.18,598.31,57.93,491.63,68.65,426.26Z" transform="translate(-12.27)"/></g><path class="cls-4" d="M121.94,395.22c26.8-2,45.06-18.42,51.78-25.14v-218c-6.88-6.2-26.48-22.15-54.32-22.79,0,0-22.43-.51-41.34,10.76-63.1,37.63-52.35,221.34,8,249C102.69,396.68,121.94,395.22,121.94,395.22Z" transform="translate(-12.27)"/><path class="cls-5" d="M146.71,30C154.5,24.32,177.3,7.86,208.63,8c33,.15,56.62,18.58,62.38,23.07,48.4,37.73,16.32,96,22.52,228.58,4.42,94.36,23.66,128.52-8.66,176-7.12,10.45-34.68,50.95-78,52.87-30.29,1.35-53.67-16.79-60.64-22.2C106,435.08,105,377.39,104.68,263.3,104.22,112.86,104.93,60.13,146.71,30Z" transform="translate(-12.27)"/><path class="cls-6" d="M210.26,480.33a115,115,0,0,0,34.16-14.88c33.07-21.47,45.34-54.21,49.27-66.62l-4.5-321.7a58.73,58.73,0,0,0-37.36-48.8c2.62,13,6,32.34,8.36,56,2.58,26.12,2.53,44.06,3,66,1.05,50,3.34,54,4.5,94,2.24,77.37,3.36,116.06-11,157C249.59,421.54,236.46,449.92,210.26,480.33Z" transform="translate(-12.27)"/><path class="cls-4" d="M331.42,106.51c-8.59-.79-30.23-2.77-44.32,10.07-10.87,9.9-11.77,23.64-13.14,55.5-2.11,49-2.07,65.39-2.91,87.59-1.31,34.91-3.9,60.38,4.37,92.83,2.84,11.15,6.28,20.45,14.6,27,13.72,10.75,37.21,11.21,42.42,11.21h0c26.92,0,54.88-15.4,59.82-18.51,43.44-27.33,48.18-199.42-14.61-246.83A100.25,100.25,0,0,0,331.42,106.51Z" transform="translate(-12.27)"/><polygon class="cls-7" points="319.23 98.34 230.35 117.17 227.31 98.99 322.59 84.74 334.98 101.68 319.23 98.34"/><path class="cls-7" d="M247.74,93.78,180.21,92.1c-8,14.53-7.5,31.58,1.47,43,11.12,14.1,30,12.89,36.48,12.48,7.31-.47,24.3-1.56,32.63-15.36C257.46,121.12,256.08,106,247.74,93.78Z" transform="translate(-12.27)"/><path class="cls-7" d="M156.4,93.78,88.87,92.1c-8,14.53-7.5,31.58,1.47,43,11.12,14.1,30,12.89,36.47,12.48,7.32-.47,24.31-1.56,32.64-15.36C166.12,121.12,164.74,106,156.4,93.78Z" transform="translate(-12.27)"/><polygon class="cls-7" points="148.98 117.17 168.16 117.17 168.19 109.7 149.85 109.7 148.98 117.17"/><path class="cls-8" d="M135.28,181.52H241.16a51.29,51.29,0,0,1-14.27,27.79c-11.46,11.36-24.84,13.51-30,14.26-1,.15-2.59.37-4.61.52a54.36,54.36,0,0,1-35.11-9.31C140.26,203,136.12,185.51,135.28,181.52Z" transform="translate(-12.27)"/><path class="cls-9" d="M170.85,221.57s15.16-34.91,59.54-16.13C230.39,205.44,213.35,233.16,170.85,221.57Z" transform="translate(-12.27)"/><path class="cls-10" d="M135.28,181.52s46,27,105.88,0Z" transform="translate(-12.27)"/><path class="cls-11" d="M210.26,65.64s16.06,20.18,35.54,19.1" transform="translate(-12.27)"/><path class="cls-12" d="M141.38,67.57S125.16,87.74,105.5,86.66" transform="translate(-12.27)"/><circle class="cls-13" cx="307.75" cy="306.98" r="3.89"/><circle class="cls-13" cx="46.28" cy="295.32" r="3.89"/><circle class="cls-13" cx="367.03" cy="232.71" r="10.39"/><circle class="cls-13" cx="55.36" cy="237.08" r="5.19"/><circle class="cls-13" cx="353.73" cy="187.09" r="5.59"/><circle class="cls-13" cx="70.95" cy="171.24" r="5.59"/><circle class="cls-13" cx="323.26" cy="353.42" r="5.59"/><circle class="cls-13" cx="295.67" cy="184.24" r="5.59"/><circle class="cls-13" cx="348.14" cy="278.25" r="5.59"/><circle class="cls-13" cx="314.66" cy="142.33" r="3.01"/><circle class="cls-13" cx="76.53" cy="321.17" r="3.01"/><circle class="cls-13" cx="374.42" cy="307.87" r="3"/><circle class="cls-13" cx="60.56" cy="212.15" r="3"/><circle class="cls-13" cx="292.3" cy="230.92" r="3.37"/><path class="cls-14" d="M179.76,274.33c16.15,2.79,19.89,6.9,20.5,10,1.72,8.66-19.67,15.92-18.48,27.33.93,8.85,14.37,9.91,15.19,18.87.94,10.18-16,14-16.21,25.3-.26,12.05,18.56,17.22,17,27-1.43,9-18.32,9.74-19.5,18-.57,4,2.39,10.42,21,20.5" transform="translate(-12.27)"/></g></g></svg>