<svg xmlns="http://www.w3.org/2000/svg" xmlns:xlink="http://www.w3.org/1999/xlink" viewBox="0 0 427.12 548.85"><defs><style>.cls-1,.cls-18,.cls-7,.cls-8{fill:none;}.cls-2{fill:#25abe2;}.cls-3{clip-path:url(#clip-path);}.cls-14,.cls-4{fill:#bf7a49;}.cls-10,.cls-11,.cls-12,.cls-13,.cls-15,.cls-17,.cls-18,.cls-4,.cls-5,.cls-6,.cls-7,.cls-8,.cls-9{stroke:#1d1d1b;}.cls-4{stroke-miterlimit:10;stroke-width:16px;}.cls-11,.cls-5{fill:#d79b52;}.cls-10,.cls-11,.cls-12,.cls-13,.cls-15,.cls-17,.cls-18,.cls-5,.cls-6,.cls-7,.cls-8,.cls-9{stroke-linecap:round;stroke-linejoin:round;}.cls-5{stroke-width:10px;}.cls-6{fill:#7cbe74;}.cls-13,.cls-6{stroke-width:7px;}.cls-7{stroke-width:4px;}.cls-10,.cls-11,.cls-12,.cls-15,.cls-8{stroke-width:6px;}.cls-10,.cls-9{fill:#b13242;}.cls-9{stroke-width:9px;}.cls-12{fill:#ffdf10;}.cls-13{fill:#46ae4c;}.cls-15,.cls-20{fill:#fff;}.cls-16,.cls-17{fill:#1d1d1b;}.cls-17,.cls-18{stroke-width:5px;}.cls-19{fill:#e9455b;}.cls-21{fill:#815d2f;}</style><clipPath id="clip-path"><circle class="cls-1" cx="214.29" cy="242.75" r="213.56"/></clipPath></defs><g id="Capa_2" data-name="Capa 2"><g id="Burguer"><circle class="cls-2" cx="213.56" cy="240.18" r="213.56"/><g class="cls-3"><path class="cls-4" d="M60.31,390.76c4.49-27.4,30.55-46.22,39.54-52.72,27.72-20,58.85-20.52,120-20.7,51-.14,77.06.09,100.72,15.05,9.2,5.82,37.75,25.84,45.73,58.37,14.12,57.57-42.33,129.37-105.5,146.1C162.83,562.81,49.58,456.12,60.31,390.76Z"/></g><path class="cls-5" d="M88.68,164.22c47.55,9.31,125.59,19,241.37-.46,8.13-1.37,23.3-4.13,30.58-15.64,8.71-13.75,1.35-32.4-4.23-46-17.19-41.84-49.78-64.9-54.89-68.42C262.74,7,222.65,5,207.47,5c-17.37,0-53.53,2.74-89.33,25.85-7.86,5.07-39.31,26.36-56.45,65.77-5.92,13.61-15,34.48-5.51,50.06C63.76,159.11,79.68,162.45,88.68,164.22Z"/><path class="cls-6" d="M50.74,155.13c.32,7.29.63,16.13,1,26.75a632.43,632.43,0,0,0,120.76,17.19A636.13,636.13,0,0,0,365.9,177.8c.45-4.81,1.47-16.37,1.65-25,0-1.64.06-5-1.57-5.72-1.38-.63-3.29.87-3.82,1.26-8.88,6.72-20.48,8.88-30.14,14.42-6,3.42-12.34,5.4-39,8.47a855.37,855.37,0,0,1-91.28,5.65s-36.22-.18-88.45-6.59a129.2,129.2,0,0,1-39-10.35c-5.43-2.44-10.94-4.93-15.71-8.48-2-1.49-4.5-3.56-6.17-2.74C50.49,149.6,50.66,153.38,50.74,155.13Z"/><path class="cls-7" d="M367.55,152c-6.92,2.58-16.78,6-28.78,9.49-54.53,15.69-98.63,15.65-134.25,15.36a599.06,599.06,0,0,1-124-14.28c-12.22-2.72-22.42-5.39-29.82-7.44"/><path class="cls-8" d="M370.3,192c-6.92,2.58-16.78,6-28.79,9.49-54.53,15.69-98.62,15.66-134.25,15.36A597.62,597.62,0,0,1,83.31,202.56c-12.22-2.72-22.42-5.38-29.83-7.43"/><path class="cls-9" d="M56.5,183s-4,11.27,0,20.68c0,0,74.62,20.23,110.85,13.64,0,0,2.41-16.61,0-17.62,0,0-1.49,0-4.15-.11C147.61,199.06,91.62,196.29,56.5,183Z"/><path class="cls-10" d="M154.33,200.53s-1.82,11.83,3.94,20.3c0,0,77.11,5.62,111.42-7.76,0,0-.8-16.76-3.36-17.3,0,0-1.47.26-4.1.68C246.83,198.91,191.34,206.88,154.33,200.53Z"/><path class="cls-10" d="M251.52,196.16s-.45,12,6.24,19.71c0,0,77.25-3.25,109.79-20.48,0,0-2.71-16.56-5.32-16.79,0,0-1.42.42-4,1.14C343.23,184,289,198.22,251.52,196.16Z"/><path class="cls-11" d="M52.54,220.72c202,1.91,277.42-.11,289.68-3.71,2-.58,13.32-4.44,20.39.94,3.45,2.63,5.08,6.85,5.82,8.79,1.07,2.79,3,7.88.81,13.17a11.45,11.45,0,0,1-4.44,5.64c-4.44,2.7-8.77,0-16.31-.63s-8.6,1.53-17.56,2.2c-10,.75-13.72-1.59-23.53-2.82-10.35-1.3-10.52.75-32.62,2.19-16.58,1.08-30,.81-38.9.63-18.17-.37-17.2-1.31-27-.94-20,.76-20.88,4.59-37.64,5-18.59.46-18.17-4.23-37.33-3.14-12.79.73-16,3-27.6,1.88s-12.77-3.82-21-2.82c-7.84.95-10.85,3.86-22.58,5-7.28.71-10.18,0-11.92-1.88-1.61-1.72-2-4.13-1.57-10A101.6,101.6,0,0,1,52.54,220.72Z"/><path class="cls-12" d="M52.93,204.45s78.68,46.18,314.62-9.06a14.88,14.88,0,0,1,.77,5.44c-.36,7-6,13.79-12.3,15.55-7.34,2-10.42-4.11-16.47-1.88-7.24,2.67-6.3,12.75-12.5,14.1-5.67,1.23-8.45-6.75-15.26-6.1-7.16.68-8,9.87-15.18,10.68-6.93.79-9.45-7.31-16.34-6.45-7.11.89-8.45,10-14.59,9.88-5.34-.12-6.25-7.09-11.76-7.53-6.78-.53-8.43,9.79-16.94,11.29-8,1.43-10.57-7.1-21.17-7.05-8.49,0-9.41,5.51-17.88,5.17-9.16-.36-11.09-6.89-17.88-5.64-7.34,1.35-7.58,9.44-14.59,9.88-5.6.35-12.33-4.4-14.11-5.65-3-2.08-4.79-4.06-7.53-3.76-1.75.19-2.21,1.22-5.17,3.29-3.81,2.65-6.35,4.42-8.94,4.24-4.74-.34-5.86-6.89-9.41-6.59-3.15.26-3.16,5.48-7.53,7.06-3.45,1.23-7.12-.68-10.35-2.36-7.18-3.72-7.79-8-11.77-8-4.13,0-5.14,4.65-9.41,5.18-2.75.34-6.74-1-12.23-8.47-1.51,4.76-5.15,7.93-8.94,8s-6.34-2.9-7.13-3.8c-3.37-3.86-3.29-8.77-3.22-13.14A36.52,36.52,0,0,1,52.93,204.45Z"/><path class="cls-5" d="M51.9,287.13l319.94-3.67a211.64,211.64,0,0,1,2.72,28.19c.5,17.39-1.55,22.28-3.5,25.5a29.94,29.94,0,0,1-12.7,11.31A30.83,30.83,0,0,1,343.43,351c-20.19-1.09-248.77.68-269.2,2-2.23.14-9.24.73-15.67-3.33-4.67-2.95-7.05-7.1-8.67-10-5.08-9.11-5.24-17.91-5.27-22.87A64,64,0,0,1,51.9,287.13Z"/><path class="cls-13" d="M48.44,275.35l320.14-6.1c1.67,8.31,2.58,19-3.15,23.66-6.26,5.12-17,1-25.41-1.56-44.26-13.51-90.07-2.66-96-1.26-9,2.14-13,3.24-18.08,4.35-12.48,2.71-18.6,4.55-25.21,4.43-15.88-.28-16.29-8.63-28.23-7.52-13.38,1.24-16.22,12-29.54,10.87a73.73,73.73,0,0,1-13.68-3.09c-7.79-2.48-10.38-4.86-20.77-5.59-24-1.67-35,15.22-47.36,9-4.32-2.17-9.86-7.29-12.13-24.75"/><path class="cls-11" d="M51.88,250.05c202,1.92,277.41-.1,289.68-3.71,1.95-.58,13.32-4.44,20.38.94,3.46,2.63,5.08,6.86,5.83,8.79,1.07,2.8,3,7.88.81,13.18a11.55,11.55,0,0,1-4.44,5.63c-4.44,2.71-8.77.05-16.31-.62s-8.6,1.52-17.57,2.19c-10,.75-13.71-1.59-23.52-2.82-10.35-1.3-10.53.75-32.62,2.19-16.58,1.09-30,.81-38.9.63-18.17-.37-17.2-1.31-27-.94-20,.76-20.88,4.6-37.64,5-18.59.47-18.17-4.23-37.33-3.14-12.79.73-16,3-27.6,1.88s-12.77-3.82-21-2.82c-7.84.95-10.85,3.87-22.58,5-7.28.72-10.18,0-11.92-1.88-1.61-1.72-2-4.13-1.57-10A101.72,101.72,0,0,1,51.88,250.05Z"/><path class="cls-12" d="M52.27,233.78s78.67,46.18,314.62-9.05a14.82,14.82,0,0,1,.76,5.43c-.35,7-5.95,13.8-12.29,15.55-7.35,2-10.42-4.11-16.47-1.88-7.24,2.67-6.31,12.75-12.5,14.1-5.67,1.24-8.45-6.75-15.26-6.1-7.16.68-8,9.87-15.18,10.69-6.93.78-9.45-7.32-16.34-6.46-7.11.89-8.45,10-14.59,9.88-5.34-.12-6.26-7.09-11.76-7.52-6.78-.54-8.43,9.78-16.94,11.29-8,1.42-10.57-7.1-21.17-7.06-8.49,0-9.41,5.51-17.88,5.18-9.17-.37-11.09-6.9-17.88-5.65-7.34,1.35-7.59,9.44-14.59,9.88-5.6.35-12.33-4.39-14.11-5.65-3-2.08-4.79-4.06-7.53-3.76-1.75.19-2.21,1.23-5.18,3.29-3.8,2.65-6.34,4.42-8.94,4.24-4.74-.33-5.85-6.89-9.41-6.59-3.14.27-3.15,5.49-7.52,7.06-3.45,1.24-7.13-.68-10.35-2.35-7.18-3.73-7.79-8-11.77-8s-5.14,4.65-9.41,5.17c-2.75.34-6.74-1-12.23-8.47-1.51,4.76-5.15,7.93-8.94,8s-6.34-2.9-7.13-3.8c-3.37-3.86-3.29-8.76-3.22-13.14A36.55,36.55,0,0,1,52.27,233.78Z"/><circle class="cls-14" cx="153.01" cy="58.88" r="1.04"/><circle class="cls-14" cx="138.97" cy="125.06" r="1.04"/><circle class="cls-14" cx="206.06" cy="54.12" r="5.81"/><circle class="cls-14" cx="192.4" cy="32.98" r="5.81"/><circle class="cls-14" cx="265.88" cy="36.65" r="5.81"/><circle class="cls-14" cx="240.11" cy="66.34" r="5.81"/><circle class="cls-14" cx="203.96" cy="99.76" r="2.38"/><circle class="cls-14" cx="214.29" cy="84.37" r="2.38"/><circle class="cls-14" cx="179.6" cy="82.34" r="2.38"/><circle class="cls-14" cx="103.87" cy="114.45" r="2.38"/><circle class="cls-14" cx="285.01" cy="97.38" r="4.77"/><circle class="cls-14" cx="266.92" cy="131.48" r="4.77"/><circle class="cls-14" cx="260.07" cy="94.76" r="4.77"/><circle class="cls-14" cx="317.97" cy="78.56" r="4.77"/><circle class="cls-14" cx="285.55" cy="66.84" r="5.3"/><circle class="cls-14" cx="322.73" cy="126.71" r="5.3"/><circle class="cls-14" cx="211.91" cy="120.97" r="11.65"/><circle class="cls-14" cx="116" cy="125.06" r="6.41"/><circle class="cls-14" cx="109.59" cy="86.66" r="8.1"/><circle class="cls-14" cx="161.44" cy="110.26" r="11.61"/><circle class="cls-14" cx="174.98" cy="138.33" r="11.61"/><circle class="cls-14" cx="177.21" cy="61.38" r="9.38"/><circle class="cls-14" cx="163.36" cy="28.15" r="9.38"/><circle class="cls-14" cx="234.31" cy="13.48" r="2.25"/><circle class="cls-14" cx="248.17" cy="109.32" r="2.25"/><circle class="cls-14" cx="290.85" cy="112.07" r="2.25"/><circle class="cls-14" cx="131.57" cy="82.34" r="4.23"/><circle class="cls-14" cx="131.57" cy="54.12" r="4.23"/><path class="cls-11" d="M202.28,39.79c-5.54-13.69-16.55-23-29.23-23-13.74,0-25.51,11-30.5,26.53C162.46,40.05,182.37,39.67,202.28,39.79Z"/><path class="cls-11" d="M150.52,91.48c5.9,7.19,13.82,11.6,22.53,11.6,10.21,0,19.34-6.06,25.41-15.57C182.28,87.15,166.15,87.52,150.52,91.48Z"/><path class="cls-15" d="M202.28,39.79c-19.91-.12-39.82.26-59.73,3.51A54.84,54.84,0,0,0,140,59.92c0,12.46,4.05,23.68,10.51,31.56,15.63-4,31.76-4.33,47.94-4a51.57,51.57,0,0,0,7.63-27.59A53.81,53.81,0,0,0,202.28,39.79Z"/><path class="cls-11" d="M269.34,37.32c-5.54-13.69-16.55-23-29.23-23-13.73,0-25.51,11-30.49,26.53C229.52,37.58,249.43,37.2,269.34,37.32Z"/><path class="cls-11" d="M217.59,89c5.9,7.19,13.82,11.6,22.52,11.6,10.22,0,19.35-6.06,25.41-15.57C249.35,84.68,233.22,85.05,217.59,89Z"/><path class="cls-15" d="M269.34,37.32c-19.91-.12-39.82.26-59.72,3.51a54.55,54.55,0,0,0-2.55,16.63c0,12.45,4.05,23.67,10.52,31.55,15.63-4,31.76-4.33,47.93-4a51.48,51.48,0,0,0,7.64-27.58A53.83,53.83,0,0,0,269.34,37.32Z"/><ellipse class="cls-16" cx="179.6" cy="78.11" rx="8.79" ry="12.64"/><ellipse class="cls-16" cx="238.56" cy="74.8" rx="8.79" ry="12.64"/><path class="cls-17" d="M135.81,116.84s84.12,26.19,144.43,0c0,0-48.66,58.43-108.27,28.82C160.24,139.83,148.09,130.6,135.81,116.84Z"/><path class="cls-18" d="M279.33,108s5.28,9.49,18.28,5.92"/><path class="cls-18" d="M134.12,107.86s-4,11.63-22.1,4.79"/><path class="cls-19" d="M168.42,142.16a80.24,80.24,0,0,0,31,10.48,6.79,6.79,0,0,0,1.67-3.33,5.71,5.71,0,0,0-.86-4.59,4.83,4.83,0,0,0-4.14-2.07c-2.68.31-3.8,3.82-4.75,3.5s.67-4.06-.91-6.84c-2-3.53-8.33-4-12.34-3.16A17,17,0,0,0,168.42,142.16Z"/><path class="cls-20" d="M161.44,123.75v5.93h9.37v-4.84a29.56,29.56,0,0,1-4.33-.11A28.88,28.88,0,0,1,161.44,123.75Z"/><path class="cls-20" d="M209.6,128.39v4.25H219v-4.18c-1.52,0-3.06-.05-4.61-.06S211.18,128.38,209.6,128.39Z"/><path class="cls-20" d="M235.06,128.65l-.27,4h9.38l.39-5.56a30.09,30.09,0,0,1-4.88,1.19A31.33,31.33,0,0,1,235.06,128.65Z"/><path class="cls-21" d="M132.06,363.65c12,1.68,24.52,2.71,75.51,2.17,36.06-.39,54.4-.62,69.49-2.17a445.69,445.69,0,0,0,58-9.88L91.06,355A308,308,0,0,0,132.06,363.65Z"/><path class="cls-21" d="M53.06,333.9l312,1.71a27.8,27.8,0,0,1-8.75,7,30.05,30.05,0,0,1-16.25,2.75c-11.6-.93-118.3,0-268.25,1.75a23.05,23.05,0,0,1-9-2.75A23.58,23.58,0,0,1,53.06,333.9Z"/><path class="cls-21" d="M314.68,160.65A83.43,83.43,0,0,0,352.37,105a57.54,57.54,0,0,1,6.94,23.37c.34,4.9.34,10.13-2.75,15.44-2.94,5.06-7.24,7.52-10.5,9.38-5.33,3-10.16,4-19.63,5.75C321.59,159.8,317.53,160.33,314.68,160.65Z"/><path class="cls-21" d="M132.39,166a150.11,150.11,0,0,1-70.67-58.33,45,45,0,0,0-5,24.21c.39,4.68.84,10.07,4.07,15,5.64,8.54,15.83,9.65,51,15.6C120.91,164,128.22,165.24,132.39,166Z"/></g></g></svg>